<svg version="1" xmlns="http://www.w3.org/2000/svg" width="346.667" height="346.667" viewBox="0 0 260.000000 260.000000"><path d="M100.5 68.6C89.6 70.3 80.9 74.4 74.4 81c-2.1 2.2-4.2 4-4.6 4-.5 0-.8-2.4-.8-5.4 0-9.1.9-8.6-17.1-8.6H36v132h35v-94.9l3.3-3.7c4.5-5.2 10.6-7.7 18.8-7.7 8.8 0 13.6 2.3 16.9 8.3l2.5 4.5.3 46.7.3 46.8h33.8l.3-46.3.3-46.2 2.7-4c5.4-7.9 14.7-11.4 25.1-9.5 6.4 1.2 9.6 3.5 12.2 8.6 1.9 3.7 2 6.2 2.3 50.6l.3 46.8h35.1l-.5-48.8c-.3-40.7-.7-49.7-2-54.9-5-19-14.6-27.8-33.5-30.5-15.4-2.3-30.6 2.7-40.8 13.4-3.1 3.3-5.7 5.8-5.9 5.6-.1-.2-1.6-2.4-3.4-5-3.7-5.5-9.6-9.9-16.4-12.2-5.1-1.7-17-2.8-22.2-2z"/></svg>